<svg width="171" height="42" viewBox="0 0 171 42" fill="none" xmlns="http://www.w3.org/2000/svg">
<path d="M11.04 32C11.6373 32.1707 12.4053 32.2987 13.344 32.384C14.2827 32.4267 15.1787 32.448 16.032 32.448C17.7387 32.448 19.1467 32.1067 20.256 31.424C21.408 30.6987 21.984 29.5893 21.984 28.096C21.984 26.688 21.5147 25.6853 20.576 25.088C19.6373 24.4907 18.208 24.192 16.288 24.192H11.04V32ZM11.04 16.384H15.712C17.5467 16.384 18.8693 16.0427 19.68 15.36C20.5333 14.6773 20.96 13.6747 20.96 12.352C20.96 11.2 20.4693 10.2827 19.488 9.6C18.5493 8.91733 17.12 8.576 15.2 8.576C14.56 8.576 13.8133 8.59733 12.96 8.64C12.1493 8.68267 11.5093 8.74667 11.04 8.832V16.384ZM15.2 41.024C14.4747 41.024 13.6213 41.0027 12.64 40.96C11.6587 40.9173 10.6347 40.832 9.568 40.704C8.544 40.576 7.52 40.4053 6.496 40.192C5.472 40.0213 4.53333 39.7653 3.68 39.424C1.33333 38.528 0.16 36.9707 0.16 34.752V4.864C0.16 3.968 0.394667 3.28533 0.864 2.816C1.376 2.304 2.05867 1.89866 2.912 1.6C4.36267 1.088 6.176 0.72533 8.352 0.511997C10.528 0.255998 12.768 0.127998 15.072 0.127998C20.5333 0.127998 24.736 1.04533 27.68 2.88C30.624 4.71467 32.096 7.552 32.096 11.392C32.096 13.312 31.5413 14.976 30.432 16.384C29.3227 17.7493 27.8293 18.752 25.952 19.392C28.0853 19.9893 29.856 21.0773 31.264 22.656C32.7147 24.2347 33.44 26.2187 33.44 28.608C33.44 32.832 31.8613 35.968 28.704 38.016C25.5893 40.0213 21.088 41.024 15.2 41.024ZM37.865 7.168C37.865 5.33333 38.3983 3.88266 39.465 2.816C40.5317 1.74933 41.9823 1.216 43.817 1.216H64.937C65.2357 1.68533 65.4917 2.304 65.705 3.072C65.961 3.84 66.089 4.65067 66.089 5.504C66.089 7.12533 65.7263 8.27733 65.001 8.96C64.3183 9.64267 63.401 9.984 62.249 9.984H48.745V15.936H63.145C63.4437 16.4053 63.6997 17.024 63.913 17.792C64.169 18.5173 64.297 19.3067 64.297 20.16C64.297 21.7813 63.9557 22.9333 63.273 23.616C62.5903 24.2987 61.673 24.64 60.521 24.64H48.745V31.36H65.193C65.4917 31.8293 65.7477 32.448 65.961 33.216C66.217 33.984 66.345 34.7947 66.345 35.648C66.345 37.2693 65.9823 38.4427 65.257 39.168C64.5743 39.8507 63.657 40.192 62.505 40.192H43.817C41.9823 40.192 40.5317 39.6587 39.465 38.592C38.3983 37.5253 37.865 36.0747 37.865 34.24V7.168ZM71.0075 7.168C71.0075 5.33333 71.5408 3.88266 72.6075 2.816C73.6742 1.74933 75.1248 1.216 76.9595 1.216H98.0795C98.3782 1.68533 98.6342 2.304 98.8475 3.072C99.1035 3.84 99.2315 4.65067 99.2315 5.504C99.2315 7.12533 98.8688 8.27733 98.1435 8.96C97.4608 9.64267 96.5435 9.984 95.3915 9.984H81.8875V15.936H96.2875C96.5862 16.4053 96.8422 17.024 97.0555 17.792C97.3115 18.5173 97.4395 19.3067 97.4395 20.16C97.4395 21.7813 97.0982 22.9333 96.4155 23.616C95.7328 24.2987 94.8155 24.64 93.6635 24.64H81.8875V31.36H98.3355C98.6342 31.8293 98.8902 32.448 99.1035 33.216C99.3595 33.984 99.4875 34.7947 99.4875 35.648C99.4875 37.2693 99.1248 38.4427 98.3995 39.168C97.7168 39.8507 96.7995 40.192 95.6475 40.192H76.9595C75.1248 40.192 73.6742 39.6587 72.6075 38.592C71.5408 37.5253 71.0075 36.0747 71.0075 34.24V7.168ZM115.286 27.456V39.744C114.817 39.872 114.07 40 113.046 40.128C112.065 40.256 111.083 40.32 110.102 40.32C109.121 40.32 108.246 40.2347 107.478 40.064C106.753 39.936 106.134 39.68 105.622 39.296C105.153 38.912 104.79 38.3787 104.534 37.696C104.278 37.0133 104.15 36.1173 104.15 35.008V4.864C104.15 3.968 104.385 3.28533 104.854 2.816C105.366 2.304 106.049 1.89866 106.902 1.6C108.353 1.088 110.038 0.72533 111.958 0.511997C113.878 0.255998 115.926 0.127998 118.102 0.127998C123.99 0.127998 128.427 1.36533 131.414 3.84C134.401 6.31467 135.894 9.664 135.894 13.888C135.894 16.5333 135.211 18.7947 133.846 20.672C132.481 22.5493 130.859 24 128.982 25.024C130.518 27.1147 132.033 29.0773 133.526 30.912C135.019 32.7467 136.193 34.4107 137.046 35.904C136.619 37.3973 135.83 38.5493 134.678 39.36C133.569 40.128 132.31 40.512 130.902 40.512C129.963 40.512 129.153 40.4053 128.47 40.192C127.787 39.9787 127.19 39.68 126.678 39.296C126.166 38.912 125.697 38.4427 125.27 37.888C124.843 37.3333 124.438 36.736 124.054 36.096L118.678 27.456H115.286ZM119.318 18.944C120.939 18.944 122.219 18.5387 123.158 17.728C124.097 16.8747 124.566 15.6373 124.566 14.016C124.566 12.3947 124.033 11.1787 122.966 10.368C121.942 9.51467 120.299 9.088 118.038 9.088C117.398 9.088 116.886 9.10933 116.502 9.152C116.118 9.19466 115.691 9.25866 115.222 9.344V18.944H119.318ZM152.238 24.576C150.361 23.936 148.654 23.296 147.118 22.656C145.582 21.9733 144.259 21.1627 143.15 20.224C142.041 19.2853 141.166 18.176 140.526 16.896C139.929 15.5733 139.63 13.9733 139.63 12.096C139.63 8.46933 141.017 5.568 143.79 3.392C146.606 1.216 150.531 0.127998 155.566 0.127998C157.401 0.127998 159.107 0.255998 160.686 0.511997C162.265 0.767999 163.609 1.17333 164.718 1.728C165.87 2.24 166.766 2.92266 167.406 3.776C168.046 4.58666 168.366 5.54666 168.366 6.656C168.366 7.76533 168.11 8.72533 167.598 9.536C167.086 10.304 166.467 10.9653 165.742 11.52C164.803 10.9227 163.545 10.4107 161.966 9.984C160.387 9.51467 158.659 9.28 156.782 9.28C154.862 9.28 153.454 9.55733 152.558 10.112C151.662 10.624 151.214 11.2853 151.214 12.096C151.214 12.736 151.491 13.2693 152.046 13.696C152.601 14.08 153.433 14.4427 154.542 14.784L157.934 15.872C161.945 17.152 165.017 18.7947 167.15 20.8C169.326 22.7627 170.414 25.4507 170.414 28.864C170.414 32.4907 168.985 35.4347 166.126 37.696C163.267 39.9147 159.065 41.024 153.518 41.024C151.555 41.024 149.721 40.8533 148.014 40.512C146.35 40.2133 144.878 39.7653 143.598 39.168C142.361 38.528 141.379 37.76 140.654 36.864C139.971 35.9253 139.63 34.8587 139.63 33.664C139.63 32.4267 139.993 31.3813 140.718 30.528C141.443 29.632 142.233 28.9493 143.086 28.48C144.281 29.4187 145.731 30.2293 147.438 30.912C149.187 31.5947 151.086 31.936 153.134 31.936C155.225 31.936 156.697 31.616 157.55 30.976C158.403 30.336 158.83 29.5893 158.83 28.736C158.83 27.8827 158.489 27.2427 157.806 26.816C157.123 26.3467 156.163 25.8987 154.926 25.472L152.238 24.576Z" fill="white"/>
</svg>
